HIERARCHY
ROOT Hips
{
	OFFSET -3.958830 18.904000 13.208200
	CHANNELS 6 Xposition Yposition Zposition Zrotation Yrotation Xrotation 
	JOINT LHipJoint
	{
		OFFSET 0.000000 0.000000 0.000000
		CHANNELS 3 Zrotation Yrotation Xrotation
		JOINT LeftUpLeg
		{
			OFFSET 1.800000 -1.400000 0.085000
			CHANNELS 3 Zrotation Yrotation Xrotation
			JOINT LeftLeg
			{
				OFFSET 2.215000 -6.000000 0.000000
				CHANNELS 3 Zrotation Yrotation Xrotation
				JOINT LeftFoot
				{
					OFFSET 2.500000 -6.900000 0.000000
					CHANNELS 3 Zrotation Yrotation Xrotation
					JOINT LeftToeBase
					{
						OFFSET 0.200000 -0.500000 1.950000
						CHANNELS 3 Zrotation Yrotation Xrotation
						End Site
						{
							OFFSET 0.000000 0.000000 0.000000
						}
					}
				}
			}
		}
	}
	JOINT RHipJoint
	{
		OFFSET 0.000000 0.000000 0.000000
		CHANNELS 3 Zrotation Yrotation Xrotation
		JOINT RightUpLeg
		{
			OFFSET -1.800000 -1.400000 0.085000
			CHANNELS 3 Zrotation Yrotation Xrotation
			JOINT RightLeg
			{
				OFFSET -2.215000 -6.000000 0.000000
				CHANNELS 3 Zrotation Yrotation Xrotation
				JOINT RightFoot
				{
					OFFSET -2.500000 -6.900000 0.000000
					CHANNELS 3 Zrotation Yrotation Xrotation
					JOINT RightToeBase
					{
						OFFSET -0.200000 -0.500000 1.950000
						CHANNELS 3 Zrotation Yrotation Xrotation
						End Site
						{
							OFFSET 0.000000 0.000000 0.000000
						}
					}
				}
			}
		}
	}
	JOINT LowerBack
	{
		OFFSET 0.000000 0.000000 0.000000
		CHANNELS 3 Zrotation Yrotation Xrotation
		JOINT Spine
		{
			OFFSET -0.087000 1.940000 -0.288900
			CHANNELS 3 Zrotation Yrotation Xrotation
			JOINT Spine1
			{
				OFFSET 0.000000 1.950000 0.060000
				CHANNELS 3 Zrotation Yrotation Xrotation
				JOINT Neck
				{
					OFFSET 0.000000 0.000000 0.000000
					CHANNELS 3 Zrotation Yrotation Xrotation
					JOINT Neck1
					{
						OFFSET 0.000000 1.600000 0.340000
						CHANNELS 3 Zrotation Yrotation Xrotation
						JOINT Head
						{
							OFFSET 0.000000 1.667000 -0.240000
							CHANNELS 3 Zrotation Yrotation Xrotation
							End Site
							{
								OFFSET 0.000000 0.000000 0.000000
							}
						}
					}
				}
				JOINT LeftShoulder
				{
					OFFSET 0.000000 0.000000 0.000000
					CHANNELS 3 Zrotation Yrotation Xrotation
					JOINT LeftArm
					{
						OFFSET 2.700000 1.550000 -0.730000
						CHANNELS 3 Zrotation Yrotation Xrotation
						JOINT LeftForeArm
						{
							OFFSET 5.450000 0.000000 0.000000
							CHANNELS 3 Zrotation Yrotation Xrotation
							JOINT LeftHand
							{
								OFFSET 3.450000 0.000000 0.000000
								CHANNELS 3 Zrotation Yrotation Xrotation
								JOINT LeftHandIndex1
								{
									OFFSET 0.750000 0.000000 0.000000
									CHANNELS 3 Zrotation Yrotation Xrotation
									End Site
									{
										OFFSET 0.000000 0.000000 0.000000
									}
								}
							}
						}
					}
				}
				JOINT RightShoulder
				{
					OFFSET 0.000000 0.000000 0.000000
					CHANNELS 3 Zrotation Yrotation Xrotation
					JOINT RightArm
					{
						OFFSET -2.700000 1.550000 -0.730000
						CHANNELS 3 Zrotation Yrotation Xrotation
						JOINT RightForeArm
						{
							OFFSET -5.450000 0.000000 0.000000
							CHANNELS 3 Zrotation Yrotation Xrotation
							JOINT RightHand
							{
								OFFSET -3.450000 0.000000 0.000000
								CHANNELS 3 Zrotation Yrotation Xrotation
								JOINT RightHandIndex1
								{
									OFFSET -0.750000 0.000000 0.000000
									CHANNELS 3 Zrotation Yrotation Xrotation
									End Site
									{
										OFFSET 0.000000 0.000000 0.000000
									}
								}
							}
						}
					}
				}
			}
		}
	}
}
MOTION
Frames: 14
Frame Time: 0.016667
-0.158540 17.149240 -2.720700 0.718304 27.794379 -4.687086 -14.628879 11.992799 3.008197 0.480989 -1.056354 -8.180819 -12.525469 6.310120 10.445106 -0.472107 3.958259 3.192253 0.498050 0.376210 0.271490 18.640592 -11.822719 3.417405 -12.560121 5.812977 -13.245584 22.091795 -11.605471 27.723155 -0.991585 -6.220023 2.026397 0.238720 -0.018570 0.108040 -5.894804 2.479408 -8.516882 22.394895 -2.753146 30.167256 -18.965024 3.253047 18.430718 7.596154 -0.787657 -13.973696 -1.741180 -3.402712 54.000383 11.500540 -9.835640 -29.295250 -30.366858 -30.964729 12.363108 -25.289055 -4.469399 -9.893236 -11.171497 -41.821179 0.693147 -2.941632 3.243506 0.767170 -0.282430 0.275050 0.046710 16.141761 38.505325 6.694176 26.661522 47.793036 -4.267295 -3.432060 70.652525 -4.008820 1.609899 -0.923687 -0.113390 0.414040 0.056330 -0.130900 
-0.157600 17.145240 -2.720330 0.739081 27.830058 -4.713838 -14.625203 11.977392 3.004930 0.489687 -1.046191 -8.124140 -12.605625 6.328536 10.422911 -0.469093 3.966666 3.189331 0.498620 0.377950 0.271120 18.646152 -11.823087 3.422091 -12.656010 5.850115 -13.252590 22.225132 -11.670108 27.796657 -0.997876 -6.250138 2.015394 0.239720 -0.019260 0.107950 -5.909873 2.512419 -8.519297 22.441775 -2.793406 30.210406 -19.123343 3.227571 18.426766 7.626875 -0.743378 -13.918792 -1.627789 -3.412155 53.912541 11.492590 -9.808650 -29.326450 -30.432019 -30.953822 12.381268 -25.066384 -4.348046 -9.835270 -11.344562 -41.533557 0.764268 -2.938070 3.250895 0.766120 -0.282370 0.275060 0.046890 16.147486 38.463707 6.598925 26.659471 47.826346 -4.177484 -3.699741 70.959285 -4.207470 1.612016 -0.916721 -0.112700 0.413380 0.055830 -0.130680 
-0.156310 17.138300 -2.719790 0.800026 27.877853 -4.782412 -14.620519 11.954189 3.000770 0.495581 -1.022812 -7.994766 -12.750635 6.364895 10.383745 -0.462806 3.984310 3.183015 0.499490 0.380370 0.270370 18.653613 -11.821364 3.429942 -12.850675 5.917953 -13.238196 22.467050 -11.790318 27.936928 -1.010048 -6.306919 1.994651 0.240650 -0.020810 0.108010 -5.929675 2.560073 -8.524695 22.465825 -2.862480 30.352683 -19.386677 3.182488 18.422814 7.680991 -0.674169 -13.834180 -1.448687 -3.415452 53.778483 11.473620 -9.759460 -29.388450 -30.555876 -30.968607 12.438356 -24.650919 -4.081621 -9.760541 -11.674492 -41.056810 0.886538 -2.928777 3.267431 0.764860 -0.282900 0.275280 0.047190 16.168848 38.453557 6.421392 26.568882 47.852777 -4.067773 -4.260083 71.547216 -4.624492 1.617599 -0.902477 -0.111270 0.411960 0.055440 -0.130430 
-0.155380 17.130860 -2.718290 0.890238 27.933626 -4.919048 -14.616406 11.930559 2.995665 0.513451 -0.977461 -7.769047 -12.935297 6.421339 10.346367 -0.452406 4.013638 3.173633 0.501150 0.382940 0.270350 18.660561 -11.819168 3.437706 -13.097544 6.000048 -13.149243 22.753007 -11.934485 28.107969 -1.026513 -6.377470 1.969962 0.241410 -0.022900 0.108040 -5.949012 2.611508 -8.531057 22.459437 -2.941967 30.609555 -19.689753 3.134543 18.439442 7.743790 -0.600670 -13.746202 -1.256663 -3.420347 53.664392 11.503250 -9.722640 -29.506810 -30.733413 -31.016834 12.535164 -24.130402 -3.678692 -9.713821 -12.110816 -40.538047 1.030652 -2.912263 3.289898 0.764900 -0.284740 0.276820 0.048710 16.232563 38.504399 6.209200 26.338397 47.812401 -4.025727 -4.888766 72.353589 -5.138115 1.627196 -0.887101 -0.109870 0.411220 0.053890 -0.130090 
-0.154150 17.122500 -2.716080 0.981548 28.028767 -5.065591 -14.613199 11.907225 2.989530 0.548227 -0.927530 -7.542886 -13.142287 6.488746 10.323042 -0.439039 4.046971 3.162312 0.502600 0.384930 0.271040 18.667007 -11.813648 3.446407 -13.355875 6.100634 -13.054505 23.065401 -12.102266 28.330762 -1.045000 -6.458473 1.940138 0.241460 -0.026350 0.108940 -5.968280 2.657952 -8.538202 22.462099 -3.031458 30.849058 -19.991219 3.075603 18.480795 7.813417 -0.559419 -13.681940 -1.134722 -3.408057 53.588424 11.507390 -9.717670 -29.574510 -30.880909 -31.071893 12.657846 -23.675225 -3.219840 -9.685022 -12.496791 -40.044546 1.145993 -2.893385 3.314345 0.763910 -0.287200 0.278860 0.049340 16.255956 38.588209 6.002901 26.062196 47.724171 -4.044997 -5.668548 73.210604 -5.783697 1.639167 -0.870855 -0.107100 0.408090 0.051660 -0.129210 
-0.153120 17.113920 -2.713250 1.081867 28.157834 -5.209435 -14.611755 11.888694 2.983495 0.570388 -0.880014 -7.335371 -13.327515 6.563754 10.355382 -0.425594 4.081682 3.150886 0.502990 0.384970 0.271830 18.671244 -11.807770 3.454119 -13.592816 6.197425 -12.954466 23.347401 -12.265763 28.563211 -1.062864 -6.536202 1.912355 0.239990 -0.029400 0.109580 -5.984103 2.695272 -8.544663 22.436886 -3.123496 31.089605 -20.274432 3.011703 18.515599 7.871458 -0.503868 -13.648019 -0.996247 -3.415084 53.546220 11.492720 -9.722550 -29.611930 -31.002523 -31.129338 12.786724 -23.279475 -2.724296 -9.671118 -12.881309 -39.606077 1.253083 -2.873946 3.337615 0.763460 -0.289500 0.280550 0.049750 16.269883 38.656730 5.834242 25.822971 47.611994 -4.105177 -6.488536 74.073382 -6.490449 1.649284 -0.853251 -0.104810 0.405310 0.049880 -0.128800 
-0.152370 17.106220 -2.710390 1.143900 28.224370 -5.363694 -14.609953 11.877495 2.977604 0.616210 -0.831149 -7.151426 -13.481639 6.638297 10.409929 -0.412101 4.116124 3.141020 0.500680 0.380680 0.271250 18.674696 -11.804719 3.460174 -13.738117 6.306544 -12.877551 23.523473 -12.399027 28.838832 -1.077215 -6.602755 1.890651 0.235410 -0.029930 0.110580 -5.996622 2.726423 -8.549567 22.435335 -3.213706 31.355613 -20.548092 2.961795 18.514722 7.911727 -0.469090 -13.651062 -0.918765 -3.401704 53.505549 11.478020 -9.738400 -29.580610 -31.152526 -31.193541 12.934616 -22.961977 -2.162904 -9.715835 -13.146485 -39.315598 1.311273 -2.853979 3.361159 0.763150 -0.290290 0.280710 0.050190 16.331356 38.761671 5.709356 25.573564 47.479965 -4.186182 -7.291582 74.931145 -7.197008 1.659139 -0.835100 -0.103440 0.402680 0.049170 -0.128250 
-0.152510 17.100290 -2.707270 1.191324 28.249510 -5.520764 -14.609677 11.874939 2.974931 0.670591 -0.782130 -6.973822 -13.613850 6.707187 10.457756 -0.400595 4.150139 3.131403 0.496210 0.372310 0.270540 18.675027 -11.803581 3.463386 -13.814627 6.413575 -12.805349 23.593411 -12.496465 29.128379 -1.087871 -6.655242 1.874652 0.229010 -0.030640 0.111790 -6.000740 2.745746 -8.553932 22.405096 -3.284034 31.662553 -20.789856 2.939854 18.464783 7.936078 -0.392933 -13.698201 -0.777573 -3.424560 53.480083 11.442480 -9.739530 -29.521250 -31.346034 -31.277074 13.096002 -22.704077 -1.575870 -9.815738 -13.249989 -39.141001 1.310293 -2.833660 3.384231 0.764940 -0.290680 0.280560 0.049630 16.446784 38.877631 5.635646 25.315687 47.320097 -4.311994 -7.928593 75.703826 -7.794757 1.667654 -0.820513 -0.103960 0.399530 0.049680 -0.129640 
-0.153220 17.097080 -2.703990 1.199366 28.249238 -5.695695 -14.609455 11.877116 2.972028 0.740362 -0.730892 -6.794810 -13.695520 6.762085 10.495819 -0.392356 4.176904 3.122749 0.490430 0.364160 0.269100 18.674655 -11.807041 3.463802 -13.799069 6.508607 -12.722760 23.571304 -12.553337 29.400092 -1.095149 -6.691043 1.864584 0.222890 -0.033180 0.111420 -6.003246 2.765253 -8.555428 22.406756 -3.358845 31.987926 -21.018240 2.927992 18.403675 7.963533 -0.310015 -13.752574 -0.628148 -3.475001 53.441875 11.372600 -9.723350 -29.547600 -31.541767 -31.351084 13.251147 -22.504190 -1.010541 -9.958230 -13.245093 -39.097560 1.274131 -2.813312 3.405412 0.767740 -0.292020 0.280790 0.047080 16.554712 38.980925 5.581309 25.081231 47.160530 -4.465109 -8.498997 76.417440 -8.353776 1.674814 -0.805717 -0.105270 0.396730 0.051570 -0.132040 
-0.154690 17.096010 -2.700250 1.191591 28.205839 -5.853398 -14.608122 11.880414 2.969499 0.805686 -0.683111 -6.626725 -13.730363 6.798458 10.512550 -0.385748 4.194961 3.116518 0.486600 0.357490 0.271060 18.675002 -11.815956 3.462014 -13.714979 6.593065 -12.652958 23.458962 -12.563511 29.643797 -1.099737 -6.708633 1.858868 0.217140 -0.037530 0.112350 -6.006386 2.790789 -8.554936 22.414704 -3.416655 32.294521 -21.231917 2.933204 18.336186 7.984803 -0.218142 -13.797944 -0.458805 -3.549778 53.374867 11.297630 -9.692720 -29.643280 -31.710816 -31.393863 13.374640 -22.325987 -0.494612 -10.081023 -13.297828 -39.050206 1.257678 -2.793957 3.425533 0.771070 -0.294550 0.282760 0.043590 16.649430 39.033715 5.543749 24.941006 47.061421 -4.588225 -8.891993 77.005149 -8.779058 1.681365 -0.794611 -0.105270 0.392770 0.052370 -0.134760 
-0.156920 17.096770 -2.696080 1.173278 28.127620 -5.984485 -14.605566 11.882795 2.967013 0.860010 -0.640083 -6.477650 -13.730715 6.818252 10.508423 -0.378760 4.203486 3.112930 0.484730 0.353570 0.274980 18.676578 -11.828072 3.459637 -13.592257 6.671521 -12.603388 23.299119 -12.543016 29.862461 -1.103111 -6.714040 1.855368 0.212170 -0.043610 0.114480 -6.011018 2.821804 -8.553494 22.426888 -3.453052 32.565436 -21.428117 2.954906 18.265736 7.994864 -0.125974 -13.835741 -0.285173 -3.627344 53.305254 11.258360 -9.647210 -29.780650 -31.835846 -31.403106 13.468296 -22.187742 -0.031936 -10.189644 -13.391215 -39.037291 1.258972 -2.775857 3.444824 0.773660 -0.298250 0.286700 0.039900 16.723799 39.034723 5.521671 24.888674 47.014589 -4.681576 -9.054814 77.463736 -9.031146 1.687786 -0.789792 -0.102940 0.387270 0.051580 -0.136740 
-0.159360 17.098460 -2.690540 1.165079 28.084562 -6.080450 -14.603963 11.886695 2.965036 0.899222 -0.604527 -6.349828 -13.698862 6.825483 10.499321 -0.374097 4.206899 3.110837 0.483290 0.349570 0.279310 18.677185 -11.840852 3.455309 -13.457519 6.718462 -12.536575 23.121919 -12.502798 30.010469 -1.103827 -6.709221 1.855934 0.207280 -0.048980 0.116850 -6.014588 2.846553 -8.550979 22.417598 -3.471706 32.766628 -21.571028 2.980446 18.212545 7.987930 -0.041446 -13.879666 -0.131343 -3.712913 53.247106 11.237050 -9.616910 -29.910560 -31.902238 -31.395575 13.529116 -22.104169 0.357440 -10.264276 -13.544751 -39.017029 1.283611 -2.761632 3.459052 0.776440 -0.301450 0.290200 0.036230 16.776966 38.999232 5.545462 24.906357 46.964768 -4.780908 -9.116180 77.881893 -9.228418 1.691080 -0.787563 -0.100850 0.381980 0.050900 -0.138720 
-0.162250 17.100540 -2.684200 1.192856 28.077197 -6.140756 -14.604276 11.891935 2.963843 0.893473 -0.576542 -6.238400 -13.626452 6.821070 10.499913 -0.372373 4.204087 3.110789 0.482700 0.347500 0.282630 18.676036 -11.852289 3.450132 -13.349042 6.743205 -12.465307 22.953145 -12.458738 30.114178 -1.103262 -6.701416 1.858236 0.204020 -0.053350 0.118210 -6.014492 2.862535 -8.547611 22.352194 -3.462022 32.915749 -21.647699 3.010908 18.183447 7.976181 0.024393 -13.902738 -0.005166 -3.793294 53.178360 11.234910 -9.594350 -30.062290 -31.906155 -31.366379 13.559211 -22.064558 0.658530 -10.305284 -13.752604 -39.001293 1.330147 -2.751798 3.467712 0.778950 -0.304040 0.292680 0.032980 16.789871 38.943157 5.569600 24.943099 46.915447 -4.873509 -9.155371 78.241375 -9.404083 1.691920 -0.786090 -0.099220 0.378240 0.050640 -0.140510 
-0.165200 17.102770 -2.677140 1.218169 28.090966 -6.185299 -14.604621 11.896429 2.962111 0.880735 -0.552098 -6.142307 -13.541697 6.810991 10.498444 -0.371463 4.198775 3.112392 0.482450 0.346560 0.285360 18.675254 -11.863435 3.444545 -13.239699 6.755057 -12.394238 22.790917 -12.414732 30.196104 -1.102502 -6.692134 1.861586 0.201660 -0.055960 0.119160 -6.015906 2.876858 -8.543751 22.289048 -3.446546 33.007047 -21.691165 3.032361 18.177773 7.956913 0.064950 -13.913563 0.078700 -3.843288 53.108180 11.249750 -9.565500 -30.203950 -31.873833 -31.317425 13.569524 -22.048306 0.916924 -10.330721 -14.001808 -39.020936 1.393935 -2.744582 3.472853 0.780970 -0.305940 0.294900 0.030850 16.790419 38.866266 5.603966 25.032055 46.893421 -4.937056 -9.158027 78.532047 -9.538612 1.691293 -0.784652 -0.098060 0.376270 0.050050 -0.141340 
